HIERARCHY
ROOT Hips
{
 OFFSET 0.000000 0.000000 0.000000
 CHANNELS 6 Xposition Yposition Zposition Yrotation Xrotation Zrotation
 JOINT Chest
 {
  OFFSET 0.000000 9.857222 0.000240
  CHANNELS 3 Yrotation Xrotation Zrotation
  JOINT Chest2
  {
   OFFSET 0.000000 10.876940 -0.000436
   CHANNELS 3 Yrotation Xrotation Zrotation
   JOINT Chest3
   {
    OFFSET 0.000000 9.827798 0.000000
    CHANNELS 3 Yrotation Xrotation Zrotation
    JOINT Chest4
    {
     OFFSET 0.000000 9.827798 0.000000
     CHANNELS 3 Yrotation Xrotation Zrotation
     JOINT Neck
     {
      OFFSET 0.000000 13.831992 0.000000
      CHANNELS 3 Yrotation Xrotation Zrotation
      JOINT Head
      {
       OFFSET 0.000000 9.147643 -0.001036
       CHANNELS 3 Yrotation Xrotation Zrotation
       End Site
       {
        OFFSET 0.000000 17.515799 -0.000541
       }
      }
     }
     JOINT RightCollar
     {
      OFFSET -3.001579 7.717577 0.000000
      CHANNELS 3 Yrotation Xrotation Zrotation
      JOINT RightShoulder
      {
       OFFSET -14.002642 0.000000 0.000000
       CHANNELS 3 Yrotation Xrotation Zrotation
       JOINT RightElbow
       {
        OFFSET -30.053852 0.000000 0.000000
        CHANNELS 3 Yrotation Xrotation Zrotation
        JOINT RightWrist
        {
         OFFSET -24.564923 0.000000 -0.000000
         CHANNELS 3 Yrotation Xrotation Zrotation
         End Site
         {
          OFFSET -18.334355 0.000000 0.000000
         }
        }
       }
      }
     }
     JOINT LeftCollar
     {
      OFFSET 3.001579 7.717577 0.000000
      CHANNELS 3 Yrotation Xrotation Zrotation
      JOINT LeftShoulder
      {
       OFFSET 14.002642 0.000000 0.000000
       CHANNELS 3 Yrotation Xrotation Zrotation
       JOINT LeftElbow
       {
        OFFSET 30.053852 0.000000 0.000000
        CHANNELS 3 Yrotation Xrotation Zrotation
        JOINT LeftWrist
        {
         OFFSET 24.564923 0.000000 -0.000000
         CHANNELS 3 Yrotation Xrotation Zrotation
         End Site
         {
          OFFSET 18.334355 0.000000 0.000000
         }
        }
       }
      }
     }
    }
   }
  }
 }
 JOINT RightHip
 {
  OFFSET -8.003235 -0.001175 -0.000120
  CHANNELS 3 Yrotation Xrotation Zrotation
  JOINT RightKnee
  {
   OFFSET 0.000000 -41.759727 0.000113
   CHANNELS 3 Yrotation Xrotation Zrotation
   JOINT RightAnkle
   {
    OFFSET 0.000000 -40.728748 0.000159
    CHANNELS 3 Yrotation Xrotation Zrotation
    JOINT RightToe
    {
     OFFSET 0.000000 -6.515296 14.732841
     CHANNELS 3 Yrotation Xrotation Zrotation
     End Site
     {
      OFFSET 0.000000 -1.502839 6.412115
     }
    }
   }
  }
 }
 JOINT LeftHip
 {
  OFFSET 8.003235 -0.001175 -0.000120
  CHANNELS 3 Yrotation Xrotation Zrotation
  JOINT LeftKnee
  {
   OFFSET 0.000000 -41.759727 0.000113
   CHANNELS 3 Yrotation Xrotation Zrotation
   JOINT LeftAnkle
   {
    OFFSET 0.000000 -40.728748 0.000159
    CHANNELS 3 Yrotation Xrotation Zrotation
    JOINT LeftToe
    {
     OFFSET 0.000000 -6.515296 14.732841
     CHANNELS 3 Yrotation Xrotation Zrotation
     End Site
     {
      OFFSET 0.000000 -1.502839 6.412115
     }
    }
   }
  }
 }
}
MOTION
Frames: 7
Frame Time: 0.016667
0.000000 88.822259 0.000000 0.000000 -5.826342 0.000000 0.000000 11.116423 0.000000 0.000000 -5.290081 0.000000 0.000000 0.000000 0.000000 0.000000 0.000000 0.000000 0.000000 12.665069 0.000000 0.000000 0.575450 0.000000 0.000000 0.000000 0.000000 0.000000 0.000000 0.000000 2.337306 0.000000 0.000000 -2.337306 0.000000 0.000000 0.000000 0.000000 0.000000 0.000000 0.000000 0.000000 -2.337306 0.000000 0.000000 2.337306 0.000000 0.000000 0.000000 8.578828 0.000000 0.000000 1.905768 0.000000 0.000000 -4.658254 0.000000 0.000000 0.000000 0.000000 0.000000 8.578828 0.000000 0.000000 1.905768 0.000000 0.000000 -4.658254 0.000000 0.000000 0.000000 0.000000
17.712499 89.410305 14.900816 -26.219125 -13.489281 0.570124 -0.186077 6.087932 -0.655768 -0.102096 2.666302 -0.319310 -0.102096 2.666302 -0.319310 -0.075164 1.999781 -0.238993 -2.892112 21.550555 1.645656 -5.706967 3.968869 3.803934 6.987129 17.365565 -0.687568 87.157010 14.717667 -7.486010 3.607749 1.986343 -6.925928 -2.851670 5.035918 -3.003453 -25.061904 21.333462 -3.581874 -60.618483 -4.415565 17.344693 -11.155882 0.641914 6.262684 1.934062 1.142622 -2.221842 -13.081129 7.682570 -13.992764 1.140684 4.699671 1.880169 0.327032 -2.281392 5.593500 0.001987 0.082937 -0.028393 -11.643921 3.602561 6.847270 20.691283 20.888335 5.098919 -3.545199 -7.126498 -9.394638 -0.010585 0.047534 -0.060021
17.719548 89.404664 14.798973 -26.459707 -12.954421 0.599080 -0.103448 5.930980 -0.678247 -0.060472 2.601892 -0.320962 -0.060472 2.601892 -0.320962 -0.043979 1.951451 -0.240422 -2.851019 21.514204 1.619030 -5.626545 3.897504 3.745917 6.939613 17.394059 -0.746753 87.275627 15.136391 -7.340129 3.531179 1.540225 -7.164441 -2.820777 4.963749 -2.810126 -25.004100 21.328653 -3.518313 -60.293412 -3.740233 17.260561 -11.536344 -0.201937 6.585185 1.985053 1.119517 -2.395452 -13.686081 6.730377 -13.938219 1.257707 5.011085 1.836877 0.356472 -2.263690 5.559984 0.029230 0.091033 -0.011465 -11.479118 2.976634 7.066047 20.755037 21.082315 5.001262 -3.474486 -7.142126 -9.310313 -0.091373 0.015646 -0.084573
17.724578 89.405205 14.645466 -26.814643 -12.270487 0.687632 0.089897 5.804358 -0.743683 -0.005797 2.505203 -0.333121 -0.005797 2.505203 -0.333121 -0.002981 1.878906 -0.249777 -2.814523 21.430242 1.609314 -5.561203 3.739128 3.722095 6.882045 17.377107 -0.761526 87.372561 15.588256 -7.184290 3.427537 1.124501 -7.435184 -2.829003 4.910746 -2.678164 -24.957180 21.324124 -3.402381 -59.879532 -2.999046 17.211960 -11.942569 -1.029870 6.886987 2.091591 1.088382 -2.568961 -13.862721 5.569454 -13.632397 1.169841 5.540131 1.525104 0.281526 -2.402540 5.564510 0.093611 0.158356 0.037845 -11.342499 2.102589 7.249337 20.978219 21.420950 4.973915 -3.202209 -7.077837 -9.135683 -0.428596 -0.110238 -0.224989
17.750486 89.398699 14.477293 -27.236361 -11.341065 0.844158 0.349639 5.692375 -0.840767 0.051012 2.369504 -0.354001 0.051012 2.369504 -0.354001 0.039627 1.777099 -0.265661 -2.780027 21.264347 1.609163 -5.505602 3.429443 3.720085 6.799411 17.336888 -0.799582 87.459815 15.942633 -7.117087 3.299926 0.844169 -7.707545 -2.852394 4.848280 -2.638339 -24.917913 21.337757 -3.253143 -59.458285 -2.319715 17.269324 -12.301914 -1.665018 7.137398 2.162980 1.081878 -2.717638 -13.993345 3.997515 -13.324646 1.353318 6.329293 1.235454 0.120276 -2.683600 5.539938 0.146442 0.225356 0.110489 -11.385064 0.851300 7.388471 21.607348 21.989528 5.098238 -2.890581 -6.996257 -8.926334 -0.901169 -0.333992 -0.420285
17.792141 89.370474 14.304855 -27.720071 -10.180191 1.018179 0.690139 5.580979 -0.922148 0.115319 2.199181 -0.386179 0.115319 2.199181 -0.386179 0.087869 1.649314 -0.290014 -2.747942 21.016780 1.628243 -5.463384 2.969513 3.757529 6.658060 17.331560 -0.862212 87.503267 16.183457 -7.214613 3.215321 0.628538 -7.972234 -2.867848 4.804929 -2.684195 -24.882825 21.427360 -3.038117 -59.087683 -1.746970 17.405962 -12.633401 -2.184824 7.457677 2.176389 1.126453 -2.722053 -13.812276 2.088412 -12.845248 1.895587 7.425209 0.849088 -0.301755 -3.169109 5.555206 0.192610 0.298232 0.191927 -11.135329 -0.816439 7.599962 22.321172 22.842363 5.399062 -2.824116 -7.016597 -8.715419 -1.398721 -0.608802 -0.627561
17.810346 89.315748 14.119992 -28.384000 -9.022434 1.155997 1.226423 5.672171 -0.920682 0.158691 2.020363 -0.412873 0.158691 2.020363 -0.412873 0.120371 1.515166 -0.310147 -2.689873 20.667242 1.645675 -5.378006 2.318862 3.789301 6.532559 17.322994 -0.986591 87.431945 16.454248 -7.484299 3.213229 0.333695 -8.268696 -2.852315 4.754098 -2.758375 -24.801326 21.430639 -2.786076 -58.705342 -1.266937 17.538384 -13.007691 -2.760950 7.953253 2.176658 1.232358 -2.613937 -13.017135 0.131403 -12.102852 2.426954 8.830756 0.196678 -0.834495 -3.800738 5.711347 0.260171 0.332160 0.261075 -10.297353 -2.695269 7.915849 22.891204 24.054638 5.848575 -2.881671 -7.169999 -8.477709 -1.985044 -0.945111 -0.876105
